<?xml version="1.0" standalone="no"?>
<!DOCTYPE svg PUBLIC "-//W3C//DTD SVG 20010904//EN"
 "http://www.w3.org/TR/2001/REC-SVG-20010904/DTD/svg10.dtd">
<svg version="1.0" xmlns="http://www.w3.org/2000/svg"
 width="345.000000pt" height="203.000000pt" viewBox="0 0 345.000000 203.000000"
 preserveAspectRatio="xMidYMid meet">

<g transform="translate(0.000000,203.000000) scale(0.100000,-0.100000)"
fill="#FFFFFF" stroke="none">
<path d="M113 1777 c5 -14 196 -345 612 -1064 l280 -483 55 0 55 0 57 98 c31
53 147 255 258 447 111 193 226 391 256 442 30 50 54 94 54 97 0 4 -91 5 -202
4 l-203 -3 -72 -125 c-172 -297 -198 -340 -205 -340 -6 0 -35 48 -325 555 -85
149 -171 296 -190 328 l-34 57 -201 0 c-158 0 -199 -3 -195 -13z"/>
<path d="M1596 1768 c-36 -56 -186 -322 -186 -330 0 -4 248 -8 550 -8 303 0
550 -2 550 -5 0 -3 -222 -272 -493 -598 l-494 -592 816 -3 c449 -1 822 0 829
3 9 3 12 48 12 175 l0 170 -446 0 c-378 0 -445 2 -442 14 2 8 220 276 485 595
266 319 483 585 483 591 0 7 -275 10 -825 10 l-825 0 -14 -22z"/>
</g>
</svg>
